<svg xmlns="http://www.w3.org/2000/svg" version="1.1" xmlns:xlink="http://www.w3.org/1999/xlink" xmlns:svgjs="http://svgjs.dev/svgjs" width="1000" height="1000" viewBox="0 0 1000 1000"><rect width="1000" height="1000" fill="#000000"></rect><g transform="matrix(0.7,0,0,0.7,149.58672840451203,244.7068825910931)"><svg viewBox="0 0 338 247" data-background-color="#ffffff" preserveAspectRatio="xMidYMid meet" height="730" width="1000" xmlns="http://www.w3.org/2000/svg" xmlns:xlink="http://www.w3.org/1999/xlink"><g id="tight-bounds" transform="matrix(1,0,0,1,0.19955114182133116,-0.09999999999999432)"><svg viewBox="0 0 337.60089631237673 247.2" height="247.2" width="337.60089631237673"><g><svg viewBox="0 0 395.52 289.6098472130021" height="247.2" width="337.60089631237673"><g transform="matrix(1,0,0,1,0,174.19654370142317)"><svg viewBox="0 0 395.52 115.41330351157895" height="115.41330351157895" width="395.52"><g id="textblocktransform"><svg viewBox="0 0 395.52 115.41330351157895" height="115.41330351157895" width="395.52" id="textblock"><g><svg viewBox="0 0 395.52 62.248421052631585" height="62.248421052631585" width="395.52"><g transform="matrix(1,0,0,1,0,0)"><svg width="395.52" viewBox="3 -34.29999923706055 293.5299987792969 46.19999694824219" height="62.248421052631585" data-palette-color="#755bb4"><path d="M13.9-13.05Q18.6-11.85 21.2-10.18 23.8-8.5 23.8-5.3L23.8-5.3Q23.8-2.45 21.43-0.9 19.05 0.65 15.7 0.65L15.7 0.65Q12.9 0.65 10.03-0.6 7.15-1.85 5.3-3.75L5.3-3.75 5.3 0 3 0 3-7.45 4.2-7.65Q6.15-4.95 9.25-3.2 12.35-1.45 15.5-1.45L15.5-1.45Q17.8-1.45 19.4-2.43 21-3.4 21-5.1L21-5.1Q21-7.25 19-8.4 17-9.55 13-10.6L13-10.6Q8.5-11.7 5.88-13.4 3.25-15.1 3.25-18L3.25-18Q3.25-20.65 5.5-22.43 7.75-24.2 11.35-24.2L11.35-24.2Q14.1-24.2 16.6-23.05 19.1-21.9 20.7-20L20.7-20 20.7-23.55 23-23.55 23-16.1 21.7-15.95Q20.25-18.85 17.5-20.48 14.75-22.1 11.75-22.1L11.75-22.1Q9.3-22.1 7.68-21.05 6.05-20 6.05-18.25L6.05-18.25Q6.05-16.35 8.08-15.23 10.1-14.1 13.9-13.05L13.9-13.05ZM46.55-3.6L47.6-1.4Q45.7-0.4 44.07 0.13 42.45 0.65 40.4 0.65L40.4 0.65Q37.1 0.65 35.02-1.43 32.95-3.5 32.95-7.7L32.95-7.7 32.95-21.2 27.2-21.2 27.2-23.55 32.95-23.55 32.95-30.1 35.7-30.1 35.7-23.55 44.45-23.55 44.45-21.2 35.7-21.2 35.7-7.6Q35.7-4.5 37.12-3.18 38.55-1.85 40.65-1.85L40.65-1.85Q43.6-1.85 46.55-3.6L46.55-3.6ZM79.45-23.55L79.45-21.2 74.9-21.2 64.09 3.65Q60.5 11.9 54.55 11.9L54.55 11.9Q52.7 11.9 51.2 11.25 49.7 10.6 48 9.45L48 9.45 49.25 7.35Q50.55 8.3 51.82 8.85 53.1 9.4 54.55 9.4L54.55 9.4Q56.7 9.4 58.5 7.9 60.3 6.4 61.6 3.45L61.6 3.45 62.4 1.55 52-21.2 47.15-21.2 47.15-23.55 59.6-23.55 59.6-21.3 54.95-21.3 63.7-1.4 72.3-21.3 67.9-21.3 67.9-23.55 79.45-23.55ZM88.59-2.35L94.49-2.35 94.49 0 80.04 0 80.04-2.35 85.84-2.35 85.84-31.95 80.09-31.95 80.04-34.3 88.59-34.3 88.59-2.35ZM119.09-5.15L120.39-3.35Q118.24-1.45 115.84-0.4 113.44 0.65 110.39 0.65L110.39 0.65Q107.19 0.65 104.34-0.73 101.49-2.1 99.74-4.75 97.99-7.4 97.99-11.05L97.99-11.05Q97.99-15.15 99.84-18.13 101.69-21.1 104.59-22.63 107.49-24.15 110.64-24.15L110.64-24.15Q113.34-24.15 115.52-23.2 117.69-22.25 118.94-20.6 120.19-18.95 120.19-16.85L120.19-16.85Q120.19-14.7 118.87-13.2 117.54-11.7 115.37-10.93 113.19-10.15 110.74-10.15L110.74-10.15Q108.19-10.15 105.79-10.73 103.39-11.3 100.69-12.3L100.69-12.3Q100.64-11.9 100.64-11.1L100.64-11.1Q100.64-8.35 101.97-6.23 103.29-4.1 105.52-2.93 107.74-1.75 110.24-1.75L110.24-1.75Q113.04-1.75 115.12-2.63 117.19-3.5 119.09-5.15L119.09-5.15ZM110.74-21.85Q107.54-21.85 104.74-19.78 101.94-17.7 100.99-14.1L100.99-14.1Q105.94-12.35 110.39-12.35L110.39-12.35Q113.24-12.35 115.34-13.53 117.44-14.7 117.44-16.85L117.44-16.85Q117.44-19.1 115.59-20.48 113.74-21.85 110.74-21.85L110.74-21.85ZM136.59-13.05Q141.29-11.85 143.89-10.18 146.49-8.5 146.49-5.3L146.49-5.3Q146.49-2.45 144.11-0.9 141.74 0.65 138.39 0.65L138.39 0.65Q135.59 0.65 132.71-0.6 129.84-1.85 127.99-3.75L127.99-3.75 127.99 0 125.69 0 125.69-7.45 126.89-7.65Q128.84-4.95 131.94-3.2 135.04-1.45 138.19-1.45L138.19-1.45Q140.49-1.45 142.09-2.43 143.69-3.4 143.69-5.1L143.69-5.1Q143.69-7.25 141.69-8.4 139.69-9.55 135.69-10.6L135.69-10.6Q131.19-11.7 128.56-13.4 125.94-15.1 125.94-18L125.94-18Q125.94-20.65 128.19-22.43 130.44-24.2 134.04-24.2L134.04-24.2Q136.79-24.2 139.29-23.05 141.79-21.9 143.39-20L143.39-20 143.39-23.55 145.69-23.55 145.69-16.1 144.39-15.95Q142.94-18.85 140.19-20.48 137.44-22.1 134.44-22.1L134.44-22.1Q131.99-22.1 130.36-21.05 128.74-20 128.74-18.25L128.74-18.25Q128.74-16.35 130.76-15.23 132.79-14.1 136.59-13.05L136.59-13.05ZM169.28-24.2Q172.28-24.2 174.78-22.73 177.28-21.25 178.76-18.5 180.24-15.75 180.24-12.2L180.24-12.2Q180.24-8.45 178.61-5.53 176.99-2.6 174.24-0.98 171.49 0.65 168.28 0.65L168.28 0.65Q165.69 0.65 163.59-0.33 161.49-1.3 159.53-3.05L159.53-3.05 159.53 8.55 165.63 8.55 165.63 10.9 151.09 10.9 151.09 8.55 156.84 8.55 156.84-21.2 151.09-21.2 151.09-23.55 159.53-23.55 159.53-19.4Q161.49-21.55 164.01-22.88 166.53-24.2 169.28-24.2L169.28-24.2ZM167.94-1.75Q170.53-1.75 172.71-3.08 174.88-4.4 176.16-6.8 177.44-9.2 177.44-12.2L177.44-12.2Q177.44-15.1 176.31-17.28 175.19-19.45 173.24-20.63 171.28-21.8 168.88-21.8L168.88-21.8Q166.24-21.8 163.86-20.48 161.49-19.15 159.53-16.9L159.53-16.9 159.53-5.35Q163.59-1.75 167.94-1.75L167.94-1.75ZM211.73-2.35L216.88-2.35 216.88 0 204.23 0 204.23-2.35 208.98-2.35 208.98-14.65Q208.98-18.15 207.48-19.95 205.98-21.75 202.98-21.75L202.98-21.75Q200.48-21.75 197.73-20.08 194.98-18.4 192.33-15.5L192.33-15.5 192.33-2.35 197.03-2.35 197.03 0 183.78 0 183.78-2.35 189.58-2.35 189.58-32 183.78-32 183.78-34.3 192.33-34.3 192.33-17.85Q195.18-20.9 197.98-22.55 200.78-24.2 203.88-24.2L203.88-24.2Q207.58-24.2 209.66-21.85 211.73-19.5 211.73-14.9L211.73-14.9 211.73-2.35ZM241.38-5.15L242.68-3.35Q240.53-1.45 238.13-0.4 235.73 0.65 232.68 0.65L232.68 0.65Q229.48 0.65 226.63-0.73 223.78-2.1 222.03-4.75 220.28-7.4 220.28-11.05L220.28-11.05Q220.28-15.15 222.13-18.13 223.98-21.1 226.88-22.63 229.78-24.15 232.93-24.15L232.93-24.15Q235.63-24.15 237.81-23.2 239.98-22.25 241.23-20.6 242.48-18.95 242.48-16.85L242.48-16.85Q242.48-14.7 241.16-13.2 239.83-11.7 237.66-10.93 235.48-10.15 233.03-10.15L233.03-10.15Q230.48-10.15 228.08-10.73 225.68-11.3 222.98-12.3L222.98-12.3Q222.93-11.9 222.93-11.1L222.93-11.1Q222.93-8.35 224.25-6.23 225.58-4.1 227.81-2.93 230.03-1.75 232.53-1.75L232.53-1.75Q235.33-1.75 237.41-2.63 239.48-3.5 241.38-5.15L241.38-5.15ZM233.03-21.85Q229.83-21.85 227.03-19.78 224.23-17.7 223.28-14.1L223.28-14.1Q228.23-12.35 232.68-12.35L232.68-12.35Q235.53-12.35 237.63-13.53 239.73-14.7 239.73-16.85L239.73-16.85Q239.73-19.1 237.88-20.48 236.03-21.85 233.03-21.85L233.03-21.85ZM267.68-24.2L269.18-24.2 269.18-14.9 266.63-14.9 266.63-21.55Q263.73-21.5 261.03-19.8 258.33-18.1 255.38-14.85L255.38-14.85 255.38-2.35 261.23-2.35 261.23 0 246.83 0 246.83-2.35 252.63-2.35 252.63-21.2 246.83-21.2 246.83-23.55 255.38-23.55 255.38-17.2Q258.33-20.55 261.35-22.38 264.38-24.2 267.68-24.2L267.68-24.2ZM295.23-5.15L296.53-3.35Q294.38-1.45 291.98-0.4 289.58 0.65 286.53 0.65L286.53 0.65Q283.33 0.65 280.48-0.73 277.63-2.1 275.88-4.75 274.13-7.4 274.13-11.05L274.13-11.05Q274.13-15.15 275.98-18.13 277.83-21.1 280.73-22.63 283.63-24.15 286.78-24.15L286.78-24.15Q289.48-24.15 291.65-23.2 293.83-22.25 295.08-20.6 296.33-18.95 296.33-16.85L296.33-16.85Q296.33-14.7 295-13.2 293.68-11.7 291.5-10.93 289.33-10.15 286.88-10.15L286.88-10.15Q284.33-10.15 281.93-10.73 279.53-11.3 276.83-12.3L276.83-12.3Q276.78-11.9 276.78-11.1L276.78-11.1Q276.78-8.35 278.1-6.23 279.43-4.1 281.65-2.93 283.88-1.75 286.38-1.75L286.38-1.75Q289.18-1.75 291.25-2.63 293.33-3.5 295.23-5.15L295.23-5.15ZM286.88-21.85Q283.68-21.85 280.88-19.78 278.08-17.7 277.13-14.1L277.13-14.1Q282.08-12.35 286.53-12.35L286.53-12.35Q289.38-12.35 291.48-13.53 293.58-14.7 293.58-16.85L293.58-16.85Q293.58-19.1 291.73-20.48 289.88-21.85 286.88-21.85L286.88-21.85Z" opacity="1" transform="matrix(1,0,0,1,0,0)" fill="#ffffff" class="wordmark-text-0" data-fill-palette-color="primary" id="text-0"></path></svg></g></svg></g><g transform="matrix(1,0,0,1,85.99890818245615,76.94377930105264)"><svg viewBox="0 0 223.52218363508769 38.46952421052631" height="38.46952421052631" width="223.52218363508769"><g transform="matrix(1,0,0,1,0,0)"><svg width="223.52218363508769" viewBox="-1.2999999523162842 -33.29999923706055 196.08999633789062 33.75" height="38.46952421052631" data-palette-color="#755bb4"><path d="M28.65-12.9Q30.05-12.9 30.78-12.33 31.5-11.75 31.5-10.7L31.5-10.7Q31.5-10.25 31.35-9.7L31.35-9.7 29.7-3.85Q29.05-1.7 27.88-0.85 26.7 0 24.4 0L24.4 0 0.9 0Q-0.15 0-0.73-0.35-1.3-0.7-1.3-1.3L-1.3-1.3Q-1.3-1.6-1.15-1.95L-1.15-1.95Q-1-2.35-0.65-2.63-0.3-2.9 0.1-3.15L0.1-3.15Q0.9-3.65 1.4-4.17 1.9-4.7 2.25-5.9L2.25-5.9 8.35-27.45Q8.55-28.1 8.55-28.7L8.55-28.7Q8.55-29.25 8.38-29.63 8.2-30 7.9-30.5L7.9-30.5Q7.45-31.15 7.45-31.55L7.45-31.55Q7.45-31.7 7.55-32.1L7.55-32.1Q7.75-32.75 8.43-33.02 9.1-33.3 10.5-33.3L10.5-33.3 22.25-33.3Q23.3-33.3 23.88-32.98 24.45-32.65 24.45-32.05L24.45-32.05Q24.45-31.8 24.3-31.4L24.3-31.4Q24.15-31.05 23.88-30.78 23.6-30.5 23.38-30.38 23.15-30.25 23.05-30.15L23.05-30.15Q22.25-29.7 21.75-29.15 21.25-28.6 20.9-27.45L20.9-27.45 14.45-4.8 17.55-4.8Q18.7-4.8 19.53-5.2 20.35-5.6 21.25-6.7L21.25-6.7 24.7-10.8Q25.65-11.9 26.53-12.4 27.4-12.9 28.65-12.9L28.65-12.9ZM51.9-26.45Q58.7-26.45 61.92-23.7 65.15-20.95 65.15-16.5L65.15-16.5Q65.15-15 64.75-13.15L64.75-13.15Q63.8-9.05 61.2-5.98 58.6-2.9 54.82-1.23 51.05 0.45 46.65 0.45L46.65 0.45Q39.7 0.45 36.37-2.33 33.05-5.1 33.05-9.7L33.05-9.7Q33.05-11.25 33.45-13.15L33.45-13.15Q34.4-17.05 37.07-20.08 39.75-23.1 43.62-24.78 47.5-26.45 51.9-26.45L51.9-26.45ZM51.75-22Q50.7-22 49.52-20.13 48.35-18.25 46.75-13.05L46.75-13.05Q45.15-7.85 45.15-5.75L45.15-5.75Q45.15-4.65 45.5-4.28 45.85-3.9 46.45-3.9L46.45-3.9Q47.5-3.8 48.62-5.7 49.75-7.6 51.45-13.1L51.45-13.1Q53-17.95 53-20.15L53-20.15Q53-21.2 52.67-21.6 52.35-22 51.75-22L51.75-22ZM84.7-26.45Q91.5-26.45 94.72-23.7 97.95-20.95 97.95-16.5L97.95-16.5Q97.95-15 97.55-13.15L97.55-13.15Q96.6-9.05 94-5.98 91.4-2.9 87.62-1.23 83.85 0.45 79.45 0.45L79.45 0.45Q72.5 0.45 69.17-2.33 65.85-5.1 65.85-9.7L65.85-9.7Q65.85-11.25 66.25-13.15L66.25-13.15Q67.2-17.05 69.87-20.08 72.55-23.1 76.42-24.78 80.3-26.45 84.7-26.45L84.7-26.45ZM84.55-22Q83.5-22 82.32-20.13 81.15-18.25 79.55-13.05L79.55-13.05Q77.95-7.85 77.95-5.75L77.95-5.75Q77.95-4.65 78.3-4.28 78.65-3.9 79.25-3.9L79.25-3.9Q80.3-3.8 81.42-5.7 82.55-7.6 84.25-13.1L84.25-13.1Q85.8-17.95 85.8-20.15L85.8-20.15Q85.8-21.2 85.47-21.6 85.15-22 84.55-22L84.55-22ZM120.49-25.8Q121.44-25.8 121.97-25.4 122.49-25 122.49-24.3L122.49-24.3Q122.49-24.1 122.39-23.6L122.39-23.6Q121.74-21.4 119.39-21.4L119.39-21.4 116.49-21.4 112.74-9.05Q112.49-8.3 112.49-7.5L112.49-7.5Q112.49-6.6 112.99-6.25 113.49-5.9 114.39-5.9L114.39-5.9Q115.19-5.9 116.39-6.1L116.39-6.1Q116.99-6.25 117.44-6.25L117.44-6.25Q117.79-6.25 117.97-6.03 118.14-5.8 118.14-5.45L118.14-5.45Q118.19-4.45 116.67-3.03 115.14-1.6 112.54-0.58 109.94 0.45 106.79 0.45L106.79 0.45Q103.39 0.45 101.34-1.1 99.29-2.65 99.29-5.35L99.29-5.35Q99.29-6.6 99.69-7.75L99.69-7.75 102.89-17.65Q103.14-18.5 103.14-19L103.14-19Q103.14-20 102.67-20.7 102.19-21.4 101.34-22.15L101.34-22.15Q100.59-22.85 100.29-23.33 99.99-23.8 100.14-24.45L100.14-24.45Q100.34-25.1 100.99-25.45 101.64-25.8 103.04-25.8L103.04-25.8 105.84-25.8 108.99-28.95Q110.64-30.6 112.02-31.25 113.39-31.9 115.59-31.9L115.59-31.9Q118.74-31.9 118.74-29.5L118.74-29.5Q118.74-28.75 118.54-28.1L118.54-28.1 117.84-25.8 120.49-25.8ZM158.29-12.9Q159.69-12.9 160.41-12.33 161.14-11.75 161.14-10.7L161.14-10.7Q161.14-10.25 160.99-9.7L160.99-9.7 159.34-3.85Q158.69-1.7 157.51-0.85 156.34 0 154.04 0L154.04 0 130.54 0Q129.49 0 128.91-0.35 128.34-0.7 128.34-1.3L128.34-1.3Q128.34-1.6 128.49-1.95L128.49-1.95Q128.64-2.35 128.99-2.63 129.34-2.9 129.74-3.15L129.74-3.15Q130.54-3.65 131.04-4.17 131.54-4.7 131.89-5.9L131.89-5.9 137.99-27.45Q138.19-28.1 138.19-28.7L138.19-28.7Q138.19-29.25 138.01-29.63 137.84-30 137.54-30.5L137.54-30.5Q137.09-31.15 137.09-31.55L137.09-31.55Q137.09-31.7 137.19-32.1L137.19-32.1Q137.39-32.75 138.06-33.02 138.74-33.3 140.14-33.3L140.14-33.3 151.89-33.3Q152.94-33.3 153.51-32.98 154.09-32.65 154.09-32.05L154.09-32.05Q154.09-31.8 153.94-31.4L153.94-31.4Q153.79-31.05 153.51-30.78 153.24-30.5 153.01-30.38 152.79-30.25 152.69-30.15L152.69-30.15Q151.89-29.7 151.39-29.15 150.89-28.6 150.54-27.45L150.54-27.45 144.09-4.8 147.19-4.8Q148.34-4.8 149.16-5.2 149.99-5.6 150.89-6.7L150.89-6.7 154.34-10.8Q155.29-11.9 156.16-12.4 157.04-12.9 158.29-12.9L158.29-12.9ZM181.54-26.45Q188.34-26.45 191.56-23.7 194.79-20.95 194.79-16.5L194.79-16.5Q194.79-15 194.39-13.15L194.39-13.15Q193.44-9.05 190.84-5.98 188.24-2.9 184.46-1.23 180.69 0.45 176.29 0.45L176.29 0.45Q169.34 0.45 166.01-2.33 162.69-5.1 162.69-9.7L162.69-9.7Q162.69-11.25 163.09-13.15L163.09-13.15Q164.04-17.05 166.71-20.08 169.39-23.1 173.26-24.78 177.14-26.45 181.54-26.45L181.54-26.45ZM181.39-22Q180.34-22 179.16-20.13 177.99-18.25 176.39-13.05L176.39-13.05Q174.79-7.85 174.79-5.75L174.79-5.75Q174.79-4.65 175.14-4.28 175.49-3.9 176.09-3.9L176.09-3.9Q177.14-3.8 178.26-5.7 179.39-7.6 181.09-13.1L181.09-13.1Q182.64-17.95 182.64-20.15L182.64-20.15Q182.64-21.2 182.31-21.6 181.99-22 181.39-22L181.39-22Z" opacity="1" transform="matrix(1,0,0,1,0,0)" fill="#ffffff" class="slogan-text-1" data-fill-palette-color="secondary" id="text-1"></path></svg></g></svg></g></svg></g></svg></g><g transform="matrix(1,0,0,1,102.48935657531315,0)"><svg viewBox="0 0 190.54128684937368 159.5011854530021" height="159.5011854530021" width="190.54128684937368"><g><svg xmlns="http://www.w3.org/2000/svg" xmlns:xlink="http://www.w3.org/1999/xlink" version="1.1" x="0" y="0" viewBox="0 5.62391996383667 99.75100708007812 83.50108337402344" enable-background="new 0 0 100 100" xml:space="preserve" height="159.5011854530021" width="190.54128684937368" class="icon-icon-0" data-fill-palette-color="accent" id="icon-0"><path fill="#ffffff" d="M69.101 28.048c0.105-0.979 0.044-1.652 0.123-2.083 3.753 0.328 7.07-2.456 7.397-6.205 0.326-3.753-2.458-7.071-6.21-7.399-3.372-0.295-6.687 2.199-6.952 5.235-0.069 0.784 0.512 1.475 1.295 1.543 0.783 0.068 1.476-0.511 1.544-1.295 0.126-1.439 2.111-2.797 3.865-2.644 2.187 0.191 3.807 2.125 3.616 4.31-0.191 2.184-2.122 3.805-4.309 3.614-2.192-0.192-2.731 2.207-3.196 4.645l0.004-0.002L69.101 28.048z" data-fill-palette-color="accent"></path><path fill="#ffffff" d="M33.862 27.959c-0.203-1.071-0.496-1.748-0.557-2.21 3.673-0.838 5.977-4.504 5.139-8.174-0.84-3.672-4.507-5.977-8.179-5.139-3.301 0.753-5.691 4.143-5.013 7.114 0.175 0.768 0.939 1.247 1.706 1.072 0.767-0.175 1.248-0.938 1.073-1.706-0.321-1.408 1.152-3.309 2.869-3.701 2.14-0.488 4.275 0.856 4.763 2.994 0.488 2.137-0.854 4.273-2.994 4.761-2.033 0.464-1.939 2.688-1.664 5.016l2.515-0.218L33.862 27.959z" data-fill-palette-color="accent"></path><polygon fill="#ffffff" points="86.621,37.945 81.937,54.463 70.566,50.045 70.566,85.893 57.123,85.893 76.553,89.125   82.162,55.413 92.329,61.445 99.751,45.731 " data-fill-palette-color="accent"></polygon><polygon fill="#ffffff" points="28.585,50.047 17.216,54.464 12.59,38.157 0,45.314 7.135,61.162 17.409,55.316 22.403,89.125   44.27,85.894 28.585,85.894 " data-fill-palette-color="accent"></polygon><path fill="#ffffff" d="M69.58 85.024V48.717l11.707 4.548 5.037-17.763-16.742-6.5-3.031-0.114-2.453 1.379-9.083-5.511c-1.086-0.654-2.449-1.063-3.886-1.236 0.081-1.748-0.251-2.784-0.241-3.41 3.991-0.311 6.981-3.806 6.67-7.793-0.313-3.99-3.809-6.981-7.798-6.671-3.586 0.279-6.624 3.471-6.373 6.698 0.065 0.834 0.793 1.456 1.626 1.391 0.833-0.065 1.457-0.793 1.392-1.626-0.119-1.53 1.725-3.299 3.59-3.444 2.325-0.181 4.36 1.563 4.541 3.886 0.181 2.322-1.56 4.358-3.885 4.539-2.626 0.204-2.48 3.489-2.563 6.422-1.451 0.169-2.833 0.582-3.929 1.246l-8.77 5.321-2.119-1.191-3.678 0.114-16.746 6.501 5.038 17.763 11.706-4.548v36.308L69.58 85.024zM45.726 27.349c1.977-1.191 5.746-1.187 7.719-0.001l7.621 4.624-11.159 6.273-11.491-6.46L45.726 27.349z" data-fill-palette-color="accent"></path></svg></g></svg></g><g></g></svg></g><defs></defs></svg><rect width="337.60089631237673" height="247.2" fill="none" stroke="none" visibility="hidden"></rect></g></svg></g></svg>